<?xml version="1.0" encoding="utf-8"?>
<!-- Generator: Adobe Illustrator 22.0.1, SVG Export Plug-In . SVG Version: 6.00 Build 0)  -->
<svg version="1.1" id="Layer_1" xmlns="http://www.w3.org/2000/svg" xmlns:xlink="http://www.w3.org/1999/xlink" x="0px" y="0px"
	 viewBox="0 0 46.3 46.3" style="enable-background:new 0 0 46.3 46.3;" xml:space="preserve">
<style type="text/css">
	.st0{fill:#FFFFFF;}
</style>
<g id="surface1">
	<path class="st0" d="M14.3,1C7.2,1,1.3,6.8,1.3,13.9v18.1C1.3,39.2,7.2,45,14.3,45h18.1c7.1,0,12.9-5.8,12.9-12.9V13.9
		C45.3,6.8,39.5,1,32.4,1H14.3z M14.3,5h18.1c4.9,0,8.9,4,8.9,8.9v18.1c0,4.9-4,8.9-8.9,8.9H14.3c-4.9,0-8.9-4-8.9-8.9V13.9
		C5.3,9,9.3,5,14.3,5z M35.1,9.4c-1,0-1.8,0.8-1.8,1.8s0.8,1.8,1.8,1.8s1.8-0.8,1.8-1.8S36.2,9.4,35.1,9.4z M23.3,11
		c-6.6,0-12,5.4-12,12s5.4,12,12,12s12-5.4,12-12S29.9,11,23.3,11z M23.3,15c4.4,0,8,3.6,8,8s-3.6,8-8,8s-8-3.6-8-8S18.9,15,23.3,15
		z"/>
</g>
</svg>
