<?xml version="1.0" encoding="utf-8"?>
<!-- Generator: Adobe Illustrator 22.0.1, SVG Export Plug-In . SVG Version: 6.00 Build 0)  -->
<svg version="1.1" id="Layer_1" xmlns="http://www.w3.org/2000/svg" xmlns:xlink="http://www.w3.org/1999/xlink" x="0px" y="0px"
	 viewBox="0 0 35.3 50" style="enable-background:new 0 0 35.3 50;" xml:space="preserve">
<style type="text/css">
	.st0{fill:#006DF0;}
</style>
<g id="surface1">
	<path class="st0" d="M17.8,1c-8.8,0-16,7.2-16,16c0,7.3,3.9,15.2,7.7,21.3S17,48.7,17,48.7c0.2,0.2,0.5,0.3,0.8,0.3
		s0.6-0.1,0.8-0.3c0,0,3.8-4.4,7.6-10.5s7.7-14,7.7-21.1C33.8,8.2,26.6,1,17.8,1z M17.8,3c7.8,0,14,6.2,14,14
		c0,6.4-3.6,14.1-7.3,20.1c-3.1,5-5.7,8.2-6.7,9.3c-0.9-1.1-3.6-4.3-6.7-9.2C7.4,31.3,3.8,23.6,3.8,17C3.8,9.2,10,3,17.8,3z
		 M17.8,11c-3.9,0-7,3.1-7,7s3.1,7,7,7s7-3.1,7-7S21.6,11,17.8,11z M17.8,13c2.8,0,5,2.2,5,5s-2.2,5-5,5s-5-2.2-5-5S15,13,17.8,13z"
		/>
</g>
</svg>
