<?xml version="1.0" encoding="utf-8"?>
<!-- Generator: Adobe Illustrator 22.0.1, SVG Export Plug-In . SVG Version: 6.00 Build 0)  -->
<svg version="1.1" id="Layer_1" xmlns="http://www.w3.org/2000/svg" xmlns:xlink="http://www.w3.org/1999/xlink" x="0px" y="0px"
	 viewBox="0 0 50.5 40.8" style="enable-background:new 0 0 50.5 40.8;" xml:space="preserve">
<style type="text/css">
	.st0{fill:#FFFFFF;}
</style>
<g id="surface1">
	<path class="st0" d="M49,5.6c-1.8,0.8-3.7,1.3-5.7,1.5c2-1.2,3.6-3.1,4.3-5.4c-1.9,1.1-4,1.9-6.3,2.4C39.6,2.2,37.1,1,34.2,1
		c-5.4,0-9.9,4.4-9.9,9.9c0,0.8,0.1,1.5,0.3,2.2C16.5,12.7,9.2,8.8,4.3,2.8C3.5,4.3,3,5.9,3,7.8c0,3.4,1.7,6.4,4.4,8.2
		c-1.6-0.1-3.1-0.5-4.5-1.2c0,0,0,0.1,0,0.1c0,4.8,3.4,8.8,7.9,9.7c-0.8,0.2-1.7,0.4-2.6,0.4c-0.6,0-1.3-0.1-1.9-0.2
		c1.3,3.9,4.9,6.8,9.2,6.8c-3.4,2.6-7.6,4.2-12.2,4.2c-0.8,0-1.6,0-2.4-0.1c4.4,2.8,9.5,4.4,15.1,4.4c18.1,0,28-15,28-28
		c0-0.4,0-0.9,0-1.3C46,9.3,47.7,7.6,49,5.6z"/>
</g>
</svg>
