<?xml version="1.0" encoding="UTF-8"?>
<svg xmlns="http://www.w3.org/2000/svg" xmlns:xlink="http://www.w3.org/1999/xlink" width="48pt" height="48pt" viewBox="0 0 48 48" version="1.1">
<g id="surface1">
<path style=" stroke:none;fill-rule:nonzero;fill:rgb(100%,100%,100%);fill-opacity:1;" d="M 36.398438 21 L 37.203125 25.203125 L 34.796875 25.203125 Z M 44 12 L 44 36 C 44 38.203125 42.203125 40 40 40 L 8 40 C 5.796875 40 4 38.203125 4 36 L 4 12 C 4 9.796875 5.796875 8 8 8 L 40 8 C 42.203125 8 44 9.796875 44 12 Z M 13 23.796875 L 12 18.796875 C 12 18.796875 11.601563 17.796875 10.398438 17.796875 C 9.203125 17.796875 6 17.796875 6 17.796875 C 6 17.796875 11.796875 19.601563 13 23.796875 Z M 14.601563 28.796875 L 18.796875 17.601563 L 16 17.601563 L 13.398438 25.601563 C 13.398438 25.601563 13.203125 25 13.203125 24.601563 C 11.796875 21.203125 9.398438 19.796875 9.398438 19.796875 L 11.601563 28.796875 Z M 23 17.796875 L 20 17.796875 L 18.398438 29 L 21.203125 29 Z M 30.796875 25.203125 C 30.796875 22.398438 26.796875 22.203125 26.796875 20.796875 C 26.796875 20.203125 27.203125 19.601563 28.601563 19.601563 C 29.601563 19.601563 30.601563 20.398438 30.601563 20.398438 L 31.203125 18 C 31.203125 18 29.796875 17.398438 28.601563 17.398438 C 25.601563 17.398438 24.203125 19 24.203125 20.796875 C 24.203125 24.398438 28.203125 23.796875 28.203125 25.601563 C 28.203125 26 28 26.601563 26.398438 26.601563 C 24.796875 26.601563 23.601563 26 23.601563 26 L 23.203125 28.398438 C 23.203125 28.398438 24.203125 29 26.203125 29 C 28 29.203125 30.796875 27.601563 30.796875 25.203125 Z M 40.601563 28.796875 L 38.398438 17.601563 L 35.398438 17.601563 L 30.796875 28.796875 L 33.601563 28.796875 L 34.203125 27.203125 L 37.796875 27.203125 L 38.203125 28.796875 Z "/>
</g>
</svg>
