<?xml version="1.0" encoding="utf-8"?>
<!-- Generator: Adobe Illustrator 22.0.1, SVG Export Plug-In . SVG Version: 6.00 Build 0)  -->
<svg version="1.1" id="Layer_1" xmlns="http://www.w3.org/2000/svg" xmlns:xlink="http://www.w3.org/1999/xlink" x="0px" y="0px"
	 viewBox="0 0 45.3 33.5" style="enable-background:new 0 0 45.3 33.5;" xml:space="preserve">
<style type="text/css">
	.st0{fill:#FFFFFF;}
</style>
<g id="surface1">
	<path class="st0" d="M43,6.4c-0.4-2.2-2.3-3.8-4.5-4.3c-3.3-0.7-9.4-1.2-16-1.2c-6.6,0-12.8,0.5-16.1,1.2c-2.2,0.5-4.1,2-4.5,4.3
		c-0.4,2.5-0.8,6-0.8,10.5s0.4,8,0.9,10.5c0.4,2.2,2.3,3.8,4.5,4.3c3.5,0.7,9.5,1.2,16.1,1.2s12.6-0.5,16.1-1.2
		c2.2-0.5,4.1-2,4.5-4.3c0.4-2.5,0.9-6.1,1-10.5C44,12.4,43.5,8.9,43,6.4z M17.1,23.9v-14l12.2,7L17.1,23.9z"/>
</g>
</svg>
